Coordinates
version=1
nRows=14
nColumns=42
inDegrees=yes

Units are S.I. units (second, meters, Newtons, ...)
If the header above contains a line with 'inDegrees', this indicates whether rotational values are in degrees (yes) or radians (no).

endheader
time	pelvis_tilt	pelvis_list	pelvis_rotation	pelvis_tx	pelvis_ty	pelvis_tz	hip_flexion_r	hip_adduction_r	hip_rotation_r	knee_angle_r	knee_adduction_r	knee_angle_r_beta	ankle_angle_r	subtalar_angle_r	mtp_angle_r	hip_flexion_l	hip_adduction_l	hip_rotation_l	knee_angle_l	knee_adduction_l	knee_angle_l_beta	ankle_angle_l	subtalar_angle_l	mtp_angle_l	lumbar_extension	lumbar_bending	lumbar_rotation	arm_flex_r	arm_add_r	arm_rot_r	elbow_flex_r	pro_sup_r	wrist_flex_r	wrist_dev_r	arm_flex_l	arm_add_l	arm_rot_l	elbow_flex_l	pro_sup_l	wrist_flex_l	wrist_dev_l
      0.27000000	      6.99080612	      9.94965583	     94.41589276	      0.49252187	      0.96029566	     -0.65775766	      2.75859157	      8.91869444	     -7.92069332	     22.02815293	      5.96791786	      0.38446380	      7.13121918	     -4.86322806	    -12.33182207	      3.71339743	     -9.12741752	      0.09807980	     69.81594772	      5.46256159	      1.21851816	     -6.89064709	    -16.14494863	    -10.63204101	    -19.45450463	     12.15425473	     -1.82172631	      1.88577484	    -13.77002651	    -13.45800692	     36.85808380	     90.00000001	      0.00000000	      0.00000000	      2.92166593	    -11.72245716	      0.99775216	     44.73398335	     90.00000001	      0.00000000	      0.00000000
      0.28000000	      6.60270207	      9.86832919	     94.31544600	      0.49311277	      0.96272698	     -0.65705623	      1.37942788	      8.61998079	     -7.68499935	     21.11352188	      5.96791786	      0.36850047	      7.44702580	     -4.42661535	    -12.26512148	      5.46132449	     -8.47008046	     -0.02088381	     69.82521087	      5.46256159	      1.21867983	     -5.50405288	    -16.53747282	    -10.81547734	    -19.39905680	     11.62188322	     -1.55823682	      2.53344442	    -13.87127374	    -13.29517255	     37.64721340	     90.00000001	      0.00000000	      0.00000000	      2.22273897	    -11.48991600	      1.16620742	     44.21454673	     90.00000001	      0.00000000	      0.00000000
      0.29000000	      6.23393094	      9.85533454	     94.23579975	      0.49385719	      0.96502812	     -0.65640912	     -0.07126078	      8.34904410	     -7.51853639	     20.19433515	      5.96791786	      0.35245764	      7.71788133	     -3.90758075	    -12.19552377	      7.09343703	     -7.93060728	     -0.21579412	     69.57101799	      5.46256159	      1.21424333	     -4.19119124	    -16.77307273	    -10.99685856	    -19.40388051	     11.10806751	     -1.29174507	      3.12729469	    -13.96730074	    -13.12332854	     38.52982407	     90.00000001	      0.00000000	      0.00000000	      1.52071252	    -11.29586821	      1.32055814	     43.68684425	     90.00000001	      0.00000000	      0.00000000
      0.30000000	      5.80125728	     10.29076336	     94.13609976	      0.49397429	      0.96814004	     -0.65571631	     -2.15109011	      7.92864833	     -7.53499719	     19.03427195	      5.96791786	      0.33221072	      8.03463997	     -2.68627154	    -12.00624449	      8.02111799	     -7.34640409	     -0.50692700	     68.78076491	      5.46256159	      1.20045081	     -2.85353621	    -16.43192279	    -10.79581358	    -19.97462253	     10.62274636	     -0.76617794	      3.35617391	    -14.36727897	    -12.57495227	     40.14899067	     90.00000001	      0.00000000	      0.00000000	      1.17007652	    -10.95647942	      1.59987502	     42.78592568	     90.00000001	      0.00000000	      0.00000000
      0.31000000	      5.46321615	     10.08023207	     93.94386003	      0.49447694	      0.96990502	     -0.65486461	     -3.31579995	      7.61351590	     -7.30310834	     18.17860374	      5.96791786	      0.31727649	      8.20883981	     -2.16930895	    -11.88139545	      9.71094795	     -6.89203216	     -0.91570931	     67.91229226	      5.46256159	      1.18529310	     -1.67911062	    -16.64439386	    -10.81893401	    -19.82263522	     10.14063140	     -0.46631946	      4.05232835	    -14.59730841	    -12.47446942	     41.07245888	     90.00000001	      0.00000000	      0.00000000	      0.36042613	    -10.74376310	      1.71218250	     42.40373314	     90.00000001	      0.00000000	      0.00000000
      0.32000000	      4.94198010	     10.37053892	     93.65070595	      0.49503874	      0.97227512	     -0.65389371	     -5.09295353	      7.08887598	     -7.00775985	     17.21869825	      5.96791786	      0.30052298	      8.47709480	     -1.31075246	    -11.61239197	     10.56403847	     -6.31170292	     -1.53450905	     66.50418391	      5.46256159	      1.16071698	     -0.62022709	    -16.51140046	    -10.64761228	    -20.32495932	      9.46017069	      0.16289131	      4.39613524	    -14.96565846	    -12.03627562	     42.54488455	     90.00000001	      0.00000000	      0.00000000	     -0.10129838	    -10.47289785	      1.76121497	     41.76259462	     90.00000001	      0.00000000	      0.00000000
      0.33000000	      4.49926273	     10.45616173	     93.40907876	      0.49549653	      0.97411109	     -0.65294152	     -6.60230815	      6.63193343	     -6.71051575	     16.30319897	      5.96791786	      0.28454450	      8.58067240	     -0.72654014	    -11.39645180	     11.65175120	     -5.81491849	     -2.05191175	     64.93454068	      5.46256159	      1.13332153	      0.35636208	    -16.34946416	    -10.56837830	    -20.56330078	      8.86004665	      0.58145946	      4.94803226	    -15.26341137	    -11.66128921	     43.61169611	     90.00000001	      0.00000000	      0.00000000	     -0.73675369	    -10.28112240	      1.74977261	     41.21230490	     90.00000001	      0.00000000	      0.00000000
      0.34000000	      4.27716322	     10.14559533	     93.26305449	      0.49584617	      0.97491500	     -0.65171331	     -7.52666942	      6.39657492	     -6.54392131	     15.55696646	      5.96791786	      0.27152029	      8.69866349	     -0.34243663	    -11.28378414	     13.25170084	     -5.55056149	     -2.43850830	     63.32448369	      5.46256159	      1.10522074	      1.19662233	    -16.13894611	    -10.58406249	    -20.34818214	      8.53848487	      0.80164156	      5.66048963	    -15.50856776	    -11.54807798	     44.51847630	     90.00000001	      0.00000000	      0.00000000	     -1.52554873	    -10.09385222	      1.78692240	     40.89103393	     90.00000001	      0.00000000	      0.00000000
      0.35000000	      3.86670662	     10.36553644	     92.85952698	      0.49627959	      0.97641707	     -0.65041577	     -9.09996598	      5.89654047	     -6.18456155	     14.71709282	      5.96791786	      0.25686173	      8.78929240	      0.37358077	    -11.15962281	     13.92025803	     -5.18242244	     -3.12620208	     61.12166922	      5.46256159	      1.06677437	      1.95229963	    -15.47065647	    -10.49768157	    -20.83479811	      7.96817501	      1.43320351	      6.16975392	    -15.99181684	    -11.00353174	     45.80248265	     90.00000001	      0.00000000	      0.00000000	     -1.96480801	     -9.75701524	      1.59489195	     40.11126621	     90.00000001	      0.00000000	      0.00000000
      0.36000000	      3.68747396	     10.05458064	     92.70473359	      0.49646128	      0.97670854	     -0.64916626	    -10.01434974	      5.66535119	     -5.94922522	     13.96664901	      5.96791786	      0.24376401	      8.82555753	      0.82440111	    -11.06596651	     15.27735187	     -4.97865509	     -3.44786650	     58.92671974	      5.46256159	      1.02846528	      2.59198432	    -14.92408992	    -10.46806307	    -20.64213707	      7.69533804	      1.65671027	      6.86082486	    -16.29995892	    -10.78880087	     46.73539941	     90.00000001	      0.00000000	      0.00000000	     -2.70676227	     -9.53485416	      1.53360478	     39.62864662	     90.00000001	      0.00000000	      0.00000000
      0.37000000	      3.36490053	     10.20681013	     92.41567212	      0.49641611	      0.97751297	     -0.64791207	    -11.49090630	      5.23471883	     -5.75816122	     13.17313029	      5.96791786	      0.22991450	      8.93707080	      1.38408201	    -11.00653751	     15.81282433	     -4.63689246	     -3.84351668	     56.19817067	      5.46256159	      0.98084311	      3.21784145	    -14.07067708	    -10.44487291	    -21.00592474	      7.29409787	      2.16577712	      7.40026551	    -16.86070067	    -10.26804525	     47.83338806	     90.00000001	      0.00000000	      0.00000000	     -3.06208298	     -9.04075203	      0.89571021	     38.70317430	     90.00000001	      0.00000000	      0.00000000
      0.38000000	      3.36736743	      9.20554548	     91.80224809	      0.49561138	      0.97696145	     -0.64872928	    -11.78186142	      4.93157655	     -5.32592720	     12.38619011	      5.96791786	      0.21617980	      8.93964954	      2.15812565	    -10.95283352	     17.35130815	     -4.55343611	     -4.30553699	     53.28539957	      5.46256159	      0.93000567	      3.85849251	    -13.51348364	    -10.36905968	    -19.84910339	      7.27612827	      2.65255043	      7.79368969	    -17.36953313	    -10.02919842	     48.56512192	     90.00000001	      0.00000000	      0.00000000	     -4.20188638	     -8.49777627	      0.70329875	     38.01959535	     90.00000001	      0.00000000	      0.00000000
      0.39000000	      3.01410774	     10.04082423	     91.64956215	      0.49646013	      0.97756592	     -0.64572627	    -13.78101507	      4.57631807	     -5.20078987	     11.81607496	      5.96791786	      0.20622941	      9.20833944	      2.55917778	    -10.94605089	     17.07793705	     -4.33687642	     -4.60279541	     50.11657886	      5.46256159	      0.87469931	      4.27636849	    -12.30123373	    -10.33962686	    -21.17926173	      6.77051462	      3.01478616	      8.74930613	    -17.89102754	     -9.23768066	     49.71916664	     90.00000001	      0.00000000	      0.00000000	     -4.15817880	     -8.34587792	      0.09782271	     37.16771532	     90.00000001	      0.00000000	      0.00000000
      0.40000000	      2.89195020	     10.00828685	     91.40113000	      0.49645981	      0.97729588	     -0.64432614	    -14.97595769	      4.34354989	     -5.00876736	     11.08581013	      5.96791786	      0.19348389	      9.24376332	      3.06723363	    -10.89606940	     17.49283778	     -4.21416120	     -4.74669174	     46.61758002	      5.46256159	      0.81363026	      4.39638734	    -11.59850220	    -10.12725531	    -21.37091390	      6.58321440	      3.23574338	      9.58866427	    -18.30070538	     -8.76599747	     50.52477177	     90.00000001	      0.00000000	      0.00000000	     -4.69100453	     -8.08756202	     -0.33826271	     36.56093470	     90.00000001	      0.00000000	      0.00000000
